<svg xmlns="http://www.w3.org/2000/svg" width="100" height="100" viewBox="0 0 100 100">
  <defs>
    <pattern id="pattern" patternUnits="userSpaceOnUse" width="100" height="100">
      <rect width="100" height="100" fill="#f5f5f7"/>
      <circle cx="10" cy="10" r="1" fill="#6366f1" opacity="0.2"/>
      <circle cx="30" cy="10" r="1" fill="#6366f1" opacity="0.2"/>
      <circle cx="50" cy="10" r="1" fill="#6366f1" opacity="0.2"/>
      <circle cx="70" cy="10" r="1" fill="#6366f1" opacity="0.2"/>
      <circle cx="90" cy="10" r="1" fill="#6366f1" opacity="0.2"/>
      
      <circle cx="10" cy="30" r="1" fill="#6366f1" opacity="0.2"/>
      <circle cx="30" cy="30" r="1" fill="#6366f1" opacity="0.2"/>
      <circle cx="50" cy="30" r="1" fill="#6366f1" opacity="0.2"/>
      <circle cx="70" cy="30" r="1" fill="#6366f1" opacity="0.2"/>
      <circle cx="90" cy="30" r="1" fill="#6366f1" opacity="0.2"/>
      
      <circle cx="10" cy="50" r="1" fill="#6366f1" opacity="0.2"/>
      <circle cx="30" cy="50" r="1" fill="#6366f1" opacity="0.2"/>
      <circle cx="50" cy="50" r="1" fill="#6366f1" opacity="0.2"/>
      <circle cx="70" cy="50" r="1" fill="#6366f1" opacity="0.2"/>
      <circle cx="90" cy="50" r="1" fill="#6366f1" opacity="0.2"/>
      
      <circle cx="10" cy="70" r="1" fill="#6366f1" opacity="0.2"/>
      <circle cx="30" cy="70" r="1" fill="#6366f1" opacity="0.2"/>
      <circle cx="50" cy="70" r="1" fill="#6366f1" opacity="0.2"/>
      <circle cx="70" cy="70" r="1" fill="#6366f1" opacity="0.2"/>
      <circle cx="90" cy="70" r="1" fill="#6366f1" opacity="0.2"/>
      
      <circle cx="10" cy="90" r="1" fill="#6366f1" opacity="0.2"/>
      <circle cx="30" cy="90" r="1" fill="#6366f1" opacity="0.2"/>
      <circle cx="50" cy="90" r="1" fill="#6366f1" opacity="0.2"/>
      <circle cx="70" cy="90" r="1" fill="#6366f1" opacity="0.2"/>
      <circle cx="90" cy="90" r="1" fill="#6366f1" opacity="0.2"/>
    </pattern>
  </defs>
  <rect width="100" height="100" fill="url(#pattern)"/>
</svg>